<!--?xml version="1.0" standalone="no"?-->              <svg id="sw-js-blob-svg" viewBox="0 0 100 100" xmlns="http://www.w3.org/2000/svg">                    <defs>                         <linearGradient id="sw-gradient" x1="0" x2="1" y1="1" y2="0">                            <stop id="stop1" stop-color="rgba(248, 117, 55, 1)" offset="0%"></stop>                            <stop id="stop2" stop-color="rgba(251, 168, 31, 1)" offset="100%"></stop>                        </linearGradient>                    </defs>                <path fill="url(#sw-gradient)" d="M19.1,-20.4C24.2,-18.4,27.6,-11.9,27.1,-6.1C26.6,-0.2,22.2,5,18.9,11C15.5,16.9,13.3,23.6,9.6,23.8C5.9,24,0.9,17.8,-2.5,13.6C-5.8,9.4,-7.3,7.3,-12.6,4.3C-17.8,1.3,-26.8,-2.5,-27.6,-6.1C-28.4,-9.7,-21.2,-13.1,-15.2,-14.9C-9.2,-16.7,-4.6,-16.9,1.2,-18.3C7,-19.7,13.9,-22.3,19.1,-20.4Z" width="100%" height="100%" transform="translate(50 50)" style="transition: 0.3s;" stroke-width="0"></path>              </svg>